<mxfile host="app.diagrams.net" modified="2022-06-15T15:37:15.536Z" agent="5.0 (Macintosh; Intel Mac OS X 10_15_7) AppleWebKit/537.36 (KHTML, like Gecko) Chrome/101.0.4951.64 Safari/537.36" etag="7-6_FKfYAMtR1gqD76UY" version="15.9.4" type="github" pages="5">
  <diagram id="C5RBs43oDa-KdzZeNtuy" name="At page load all actions">
    <mxGraphModel dx="1426" dy="1516" grid="1" gridSize="10" guides="1" tooltips="1" connect="1" arrows="1" fold="1" page="1" pageScale="1" pageWidth="980" pageHeight="690" math="0" shadow="0">
      <root>
        <mxCell id="WIyWlLk6GJQsqaUBKTNV-0" />
        <mxCell id="WIyWlLk6GJQsqaUBKTNV-1" parent="WIyWlLk6GJQsqaUBKTNV-0" />
        <mxCell id="qBONgrhp5fYPKD2XsoFv-1" value="" style="edgeStyle=orthogonalEdgeStyle;rounded=0;orthogonalLoop=1;jettySize=auto;html=1;" edge="1" parent="WIyWlLk6GJQsqaUBKTNV-1" source="WIyWlLk6GJQsqaUBKTNV-3" target="qBONgrhp5fYPKD2XsoFv-0">
          <mxGeometry relative="1" as="geometry" />
        </mxCell>
        <mxCell id="WIyWlLk6GJQsqaUBKTNV-3" value="Get All Products" style="rounded=1;whiteSpace=wrap;html=1;fontSize=12;glass=0;strokeWidth=1;shadow=0;" parent="WIyWlLk6GJQsqaUBKTNV-1" vertex="1">
          <mxGeometry x="200" y="-310" width="120" height="40" as="geometry" />
        </mxCell>
        <mxCell id="qBONgrhp5fYPKD2XsoFv-13" value="" style="edgeStyle=orthogonalEdgeStyle;rounded=0;orthogonalLoop=1;jettySize=auto;html=1;" edge="1" parent="WIyWlLk6GJQsqaUBKTNV-1" source="qBONgrhp5fYPKD2XsoFv-0" target="qBONgrhp5fYPKD2XsoFv-12">
          <mxGeometry relative="1" as="geometry" />
        </mxCell>
        <mxCell id="qBONgrhp5fYPKD2XsoFv-0" value="Sort by store name" style="rounded=1;whiteSpace=wrap;html=1;fontSize=12;glass=0;strokeWidth=1;shadow=0;" vertex="1" parent="WIyWlLk6GJQsqaUBKTNV-1">
          <mxGeometry x="485" y="-310" width="120" height="40" as="geometry" />
        </mxCell>
        <mxCell id="qBONgrhp5fYPKD2XsoFv-8" value="Display only products in that category" style="rounded=1;whiteSpace=wrap;html=1;fontSize=12;glass=0;strokeWidth=1;shadow=0;" vertex="1" parent="WIyWlLk6GJQsqaUBKTNV-1">
          <mxGeometry x="670" y="40" width="120" height="40" as="geometry" />
        </mxCell>
        <mxCell id="qBONgrhp5fYPKD2XsoFv-14" style="edgeStyle=orthogonalEdgeStyle;rounded=0;orthogonalLoop=1;jettySize=auto;html=1;entryX=0.5;entryY=0;entryDx=0;entryDy=0;" edge="1" parent="WIyWlLk6GJQsqaUBKTNV-1" source="qBONgrhp5fYPKD2XsoFv-12" target="qBONgrhp5fYPKD2XsoFv-24">
          <mxGeometry relative="1" as="geometry">
            <mxPoint x="735" y="250" as="targetPoint" />
          </mxGeometry>
        </mxCell>
        <mxCell id="ye9LeTMhtZtwqH-GRNJo-5" style="edgeStyle=orthogonalEdgeStyle;rounded=0;orthogonalLoop=1;jettySize=auto;html=1;" edge="1" parent="WIyWlLk6GJQsqaUBKTNV-1" source="qBONgrhp5fYPKD2XsoFv-12" target="qBONgrhp5fYPKD2XsoFv-26">
          <mxGeometry relative="1" as="geometry" />
        </mxCell>
        <mxCell id="qBONgrhp5fYPKD2XsoFv-12" value="Display all products from each given store" style="rounded=1;whiteSpace=wrap;html=1;fontSize=12;glass=0;strokeWidth=1;shadow=0;" vertex="1" parent="WIyWlLk6GJQsqaUBKTNV-1">
          <mxGeometry x="460" y="-160" width="170" height="40" as="geometry" />
        </mxCell>
        <mxCell id="qBONgrhp5fYPKD2XsoFv-18" style="edgeStyle=orthogonalEdgeStyle;rounded=0;orthogonalLoop=1;jettySize=auto;html=1;entryX=0;entryY=0.5;entryDx=0;entryDy=0;exitX=0.5;exitY=0;exitDx=0;exitDy=0;" edge="1" parent="WIyWlLk6GJQsqaUBKTNV-1" source="qBONgrhp5fYPKD2XsoFv-17" target="WIyWlLk6GJQsqaUBKTNV-3">
          <mxGeometry relative="1" as="geometry">
            <mxPoint x="90" y="80" as="sourcePoint" />
            <Array as="points">
              <mxPoint x="90" y="-290" />
            </Array>
          </mxGeometry>
        </mxCell>
        <mxCell id="qBONgrhp5fYPKD2XsoFv-19" style="edgeStyle=orthogonalEdgeStyle;rounded=0;orthogonalLoop=1;jettySize=auto;html=1;exitX=0.5;exitY=1;exitDx=0;exitDy=0;entryX=0;entryY=0.5;entryDx=0;entryDy=0;" edge="1" parent="WIyWlLk6GJQsqaUBKTNV-1" source="qBONgrhp5fYPKD2XsoFv-17" target="qBONgrhp5fYPKD2XsoFv-21">
          <mxGeometry relative="1" as="geometry">
            <mxPoint x="90" y="300" as="targetPoint" />
          </mxGeometry>
        </mxCell>
        <mxCell id="ye9LeTMhtZtwqH-GRNJo-26" style="edgeStyle=orthogonalEdgeStyle;rounded=0;orthogonalLoop=1;jettySize=auto;html=1;entryX=0.5;entryY=0;entryDx=0;entryDy=0;" edge="1" parent="WIyWlLk6GJQsqaUBKTNV-1" source="qBONgrhp5fYPKD2XsoFv-17" target="ye9LeTMhtZtwqH-GRNJo-25">
          <mxGeometry relative="1" as="geometry" />
        </mxCell>
        <mxCell id="qBONgrhp5fYPKD2XsoFv-17" value="Load Page" style="rounded=1;whiteSpace=wrap;html=1;fontSize=12;glass=0;strokeWidth=1;shadow=0;" vertex="1" parent="WIyWlLk6GJQsqaUBKTNV-1">
          <mxGeometry x="30" y="70" width="120" height="40" as="geometry" />
        </mxCell>
        <mxCell id="ye9LeTMhtZtwqH-GRNJo-13" style="edgeStyle=orthogonalEdgeStyle;rounded=0;orthogonalLoop=1;jettySize=auto;html=1;entryX=0;entryY=0.5;entryDx=0;entryDy=0;" edge="1" parent="WIyWlLk6GJQsqaUBKTNV-1" source="qBONgrhp5fYPKD2XsoFv-20" target="ye9LeTMhtZtwqH-GRNJo-12">
          <mxGeometry relative="1" as="geometry" />
        </mxCell>
        <mxCell id="ye9LeTMhtZtwqH-GRNJo-19" style="edgeStyle=orthogonalEdgeStyle;rounded=0;orthogonalLoop=1;jettySize=auto;html=1;entryX=0.5;entryY=1;entryDx=0;entryDy=0;" edge="1" parent="WIyWlLk6GJQsqaUBKTNV-1" source="qBONgrhp5fYPKD2XsoFv-20" target="ye9LeTMhtZtwqH-GRNJo-17">
          <mxGeometry relative="1" as="geometry">
            <Array as="points">
              <mxPoint x="280" y="220" />
              <mxPoint x="500" y="220" />
              <mxPoint x="500" y="60" />
              <mxPoint x="355" y="60" />
            </Array>
          </mxGeometry>
        </mxCell>
        <mxCell id="qBONgrhp5fYPKD2XsoFv-20" value="Get saved list" style="rounded=1;whiteSpace=wrap;html=1;fontSize=12;glass=0;strokeWidth=1;shadow=0;" vertex="1" parent="WIyWlLk6GJQsqaUBKTNV-1">
          <mxGeometry x="220" y="260" width="120" height="40" as="geometry" />
        </mxCell>
        <mxCell id="ye9LeTMhtZtwqH-GRNJo-9" style="edgeStyle=orthogonalEdgeStyle;rounded=0;orthogonalLoop=1;jettySize=auto;html=1;entryX=0.5;entryY=1;entryDx=0;entryDy=0;" edge="1" parent="WIyWlLk6GJQsqaUBKTNV-1" source="qBONgrhp5fYPKD2XsoFv-21" target="ye9LeTMhtZtwqH-GRNJo-7">
          <mxGeometry relative="1" as="geometry" />
        </mxCell>
        <mxCell id="ye9LeTMhtZtwqH-GRNJo-11" style="edgeStyle=orthogonalEdgeStyle;rounded=0;orthogonalLoop=1;jettySize=auto;html=1;entryX=0;entryY=0.5;entryDx=0;entryDy=0;" edge="1" parent="WIyWlLk6GJQsqaUBKTNV-1" source="qBONgrhp5fYPKD2XsoFv-21" target="ye9LeTMhtZtwqH-GRNJo-10">
          <mxGeometry relative="1" as="geometry" />
        </mxCell>
        <mxCell id="qBONgrhp5fYPKD2XsoFv-21" value="Get favorites list" style="rounded=1;whiteSpace=wrap;html=1;fontSize=12;glass=0;strokeWidth=1;shadow=0;" vertex="1" parent="WIyWlLk6GJQsqaUBKTNV-1">
          <mxGeometry x="190" y="140" width="120" height="40" as="geometry" />
        </mxCell>
        <mxCell id="ye9LeTMhtZtwqH-GRNJo-4" style="edgeStyle=orthogonalEdgeStyle;rounded=0;orthogonalLoop=1;jettySize=auto;html=1;entryX=0.5;entryY=0;entryDx=0;entryDy=0;" edge="1" parent="WIyWlLk6GJQsqaUBKTNV-1" source="qBONgrhp5fYPKD2XsoFv-24" target="qBONgrhp5fYPKD2XsoFv-8">
          <mxGeometry relative="1" as="geometry" />
        </mxCell>
        <mxCell id="qBONgrhp5fYPKD2XsoFv-24" value="Select category" style="rhombus;whiteSpace=wrap;html=1;" vertex="1" parent="WIyWlLk6GJQsqaUBKTNV-1">
          <mxGeometry x="655" y="-80" width="150" height="50" as="geometry" />
        </mxCell>
        <mxCell id="ye9LeTMhtZtwqH-GRNJo-3" style="edgeStyle=orthogonalEdgeStyle;rounded=0;orthogonalLoop=1;jettySize=auto;html=1;entryX=0.5;entryY=1;entryDx=0;entryDy=0;" edge="1" parent="WIyWlLk6GJQsqaUBKTNV-1" source="qBONgrhp5fYPKD2XsoFv-26" target="ye9LeTMhtZtwqH-GRNJo-1">
          <mxGeometry relative="1" as="geometry" />
        </mxCell>
        <mxCell id="qBONgrhp5fYPKD2XsoFv-26" value="Enter search query" style="rhombus;whiteSpace=wrap;html=1;" vertex="1" parent="WIyWlLk6GJQsqaUBKTNV-1">
          <mxGeometry x="655" y="-240" width="150" height="50" as="geometry" />
        </mxCell>
        <mxCell id="ye9LeTMhtZtwqH-GRNJo-1" value="Display only products that start with letters being typed" style="rounded=1;whiteSpace=wrap;html=1;fontSize=12;glass=0;strokeWidth=1;shadow=0;" vertex="1" parent="WIyWlLk6GJQsqaUBKTNV-1">
          <mxGeometry x="670" y="-345" width="120" height="50" as="geometry" />
        </mxCell>
        <mxCell id="ye9LeTMhtZtwqH-GRNJo-8" style="edgeStyle=orthogonalEdgeStyle;rounded=0;orthogonalLoop=1;jettySize=auto;html=1;entryX=0.5;entryY=1;entryDx=0;entryDy=0;" edge="1" parent="WIyWlLk6GJQsqaUBKTNV-1" source="ye9LeTMhtZtwqH-GRNJo-7" target="WIyWlLk6GJQsqaUBKTNV-3">
          <mxGeometry relative="1" as="geometry" />
        </mxCell>
        <mxCell id="ye9LeTMhtZtwqH-GRNJo-7" value="Mark products on user&#39;s favorites list as favorited (filled heart)&amp;nbsp;" style="ellipse;whiteSpace=wrap;html=1;" vertex="1" parent="WIyWlLk6GJQsqaUBKTNV-1">
          <mxGeometry x="110" y="-95" width="150" height="95" as="geometry" />
        </mxCell>
        <mxCell id="ye9LeTMhtZtwqH-GRNJo-10" value="Display favorites list" style="rounded=1;whiteSpace=wrap;html=1;fontSize=12;glass=0;strokeWidth=1;shadow=0;" vertex="1" parent="WIyWlLk6GJQsqaUBKTNV-1">
          <mxGeometry x="340" y="140" width="120" height="40" as="geometry" />
        </mxCell>
        <mxCell id="ye9LeTMhtZtwqH-GRNJo-12" value="Display saved list" style="rounded=1;whiteSpace=wrap;html=1;fontSize=12;glass=0;strokeWidth=1;shadow=0;" vertex="1" parent="WIyWlLk6GJQsqaUBKTNV-1">
          <mxGeometry x="390" y="260" width="120" height="40" as="geometry" />
        </mxCell>
        <mxCell id="ye9LeTMhtZtwqH-GRNJo-41" style="edgeStyle=orthogonalEdgeStyle;rounded=0;orthogonalLoop=1;jettySize=auto;html=1;entryX=0.5;entryY=0;entryDx=0;entryDy=0;" edge="1" parent="WIyWlLk6GJQsqaUBKTNV-1" source="ye9LeTMhtZtwqH-GRNJo-14" target="ye9LeTMhtZtwqH-GRNJo-36">
          <mxGeometry relative="1" as="geometry" />
        </mxCell>
        <mxCell id="ye9LeTMhtZtwqH-GRNJo-14" value="Add favorite" style="rhombus;whiteSpace=wrap;html=1;" vertex="1" parent="WIyWlLk6GJQsqaUBKTNV-1">
          <mxGeometry x="540" y="240" width="150" height="50" as="geometry" />
        </mxCell>
        <mxCell id="ye9LeTMhtZtwqH-GRNJo-21" style="edgeStyle=orthogonalEdgeStyle;rounded=0;orthogonalLoop=1;jettySize=auto;html=1;entryX=0.5;entryY=0;entryDx=0;entryDy=0;" edge="1" parent="WIyWlLk6GJQsqaUBKTNV-1" source="ye9LeTMhtZtwqH-GRNJo-15" target="ye9LeTMhtZtwqH-GRNJo-14">
          <mxGeometry relative="1" as="geometry" />
        </mxCell>
        <mxCell id="ye9LeTMhtZtwqH-GRNJo-22" style="edgeStyle=orthogonalEdgeStyle;rounded=0;orthogonalLoop=1;jettySize=auto;html=1;entryX=0.5;entryY=0;entryDx=0;entryDy=0;" edge="1" parent="WIyWlLk6GJQsqaUBKTNV-1" source="ye9LeTMhtZtwqH-GRNJo-15" target="ye9LeTMhtZtwqH-GRNJo-20">
          <mxGeometry relative="1" as="geometry" />
        </mxCell>
        <mxCell id="ye9LeTMhtZtwqH-GRNJo-15" value="Product Actions" style="shape=parallelogram;perimeter=parallelogramPerimeter;whiteSpace=wrap;html=1;fixedSize=1;" vertex="1" parent="WIyWlLk6GJQsqaUBKTNV-1">
          <mxGeometry x="665" y="120" width="140" height="40" as="geometry" />
        </mxCell>
        <mxCell id="ye9LeTMhtZtwqH-GRNJo-18" style="edgeStyle=orthogonalEdgeStyle;rounded=0;orthogonalLoop=1;jettySize=auto;html=1;entryX=0.5;entryY=1;entryDx=0;entryDy=0;" edge="1" parent="WIyWlLk6GJQsqaUBKTNV-1" source="ye9LeTMhtZtwqH-GRNJo-17" target="WIyWlLk6GJQsqaUBKTNV-3">
          <mxGeometry relative="1" as="geometry" />
        </mxCell>
        <mxCell id="ye9LeTMhtZtwqH-GRNJo-17" value="Mark products on user&#39;s saved list as already saved (remove icon)&amp;nbsp;" style="ellipse;whiteSpace=wrap;html=1;" vertex="1" parent="WIyWlLk6GJQsqaUBKTNV-1">
          <mxGeometry x="280" y="-95" width="150" height="95" as="geometry" />
        </mxCell>
        <mxCell id="ye9LeTMhtZtwqH-GRNJo-38" style="edgeStyle=orthogonalEdgeStyle;rounded=0;orthogonalLoop=1;jettySize=auto;html=1;entryX=0.5;entryY=0;entryDx=0;entryDy=0;" edge="1" parent="WIyWlLk6GJQsqaUBKTNV-1" source="ye9LeTMhtZtwqH-GRNJo-20" target="ye9LeTMhtZtwqH-GRNJo-34">
          <mxGeometry relative="1" as="geometry" />
        </mxCell>
        <mxCell id="ye9LeTMhtZtwqH-GRNJo-20" value="Add to grocery list" style="rhombus;whiteSpace=wrap;html=1;" vertex="1" parent="WIyWlLk6GJQsqaUBKTNV-1">
          <mxGeometry x="770" y="240" width="150" height="50" as="geometry" />
        </mxCell>
        <mxCell id="ye9LeTMhtZtwqH-GRNJo-24" value="Display empty grocery list" style="rounded=1;whiteSpace=wrap;html=1;fontSize=12;glass=0;strokeWidth=1;shadow=0;" vertex="1" parent="WIyWlLk6GJQsqaUBKTNV-1">
          <mxGeometry x="120" y="390" width="120" height="40" as="geometry" />
        </mxCell>
        <mxCell id="ye9LeTMhtZtwqH-GRNJo-27" style="edgeStyle=orthogonalEdgeStyle;rounded=0;orthogonalLoop=1;jettySize=auto;html=1;entryX=0;entryY=0.5;entryDx=0;entryDy=0;" edge="1" parent="WIyWlLk6GJQsqaUBKTNV-1" source="ye9LeTMhtZtwqH-GRNJo-25" target="qBONgrhp5fYPKD2XsoFv-20">
          <mxGeometry relative="1" as="geometry" />
        </mxCell>
        <mxCell id="ye9LeTMhtZtwqH-GRNJo-29" style="edgeStyle=orthogonalEdgeStyle;rounded=0;orthogonalLoop=1;jettySize=auto;html=1;entryX=0;entryY=0.5;entryDx=0;entryDy=0;" edge="1" parent="WIyWlLk6GJQsqaUBKTNV-1" source="ye9LeTMhtZtwqH-GRNJo-25" target="ye9LeTMhtZtwqH-GRNJo-24">
          <mxGeometry relative="1" as="geometry" />
        </mxCell>
        <mxCell id="ye9LeTMhtZtwqH-GRNJo-25" value="Check if saved list" style="rhombus;whiteSpace=wrap;html=1;" vertex="1" parent="WIyWlLk6GJQsqaUBKTNV-1">
          <mxGeometry x="50" y="240" width="80" height="80" as="geometry" />
        </mxCell>
        <mxCell id="ye9LeTMhtZtwqH-GRNJo-28" value="True" style="text;html=1;strokeColor=none;fillColor=none;align=center;verticalAlign=middle;whiteSpace=wrap;rounded=0;" vertex="1" parent="WIyWlLk6GJQsqaUBKTNV-1">
          <mxGeometry x="140" y="250" width="60" height="30" as="geometry" />
        </mxCell>
        <mxCell id="ye9LeTMhtZtwqH-GRNJo-30" value="False" style="text;html=1;strokeColor=none;fillColor=none;align=center;verticalAlign=middle;whiteSpace=wrap;rounded=0;" vertex="1" parent="WIyWlLk6GJQsqaUBKTNV-1">
          <mxGeometry x="90" y="345" width="60" height="30" as="geometry" />
        </mxCell>
        <mxCell id="ye9LeTMhtZtwqH-GRNJo-32" value="If favorites list" style="text;html=1;strokeColor=none;fillColor=none;align=center;verticalAlign=middle;whiteSpace=wrap;rounded=0;" vertex="1" parent="WIyWlLk6GJQsqaUBKTNV-1">
          <mxGeometry x="110" y="125" width="60" height="30" as="geometry" />
        </mxCell>
        <mxCell id="ye9LeTMhtZtwqH-GRNJo-40" style="edgeStyle=orthogonalEdgeStyle;rounded=0;orthogonalLoop=1;jettySize=auto;html=1;entryX=0.5;entryY=0;entryDx=0;entryDy=0;" edge="1" parent="WIyWlLk6GJQsqaUBKTNV-1" source="ye9LeTMhtZtwqH-GRNJo-34" target="ye9LeTMhtZtwqH-GRNJo-35">
          <mxGeometry relative="1" as="geometry" />
        </mxCell>
        <mxCell id="ye9LeTMhtZtwqH-GRNJo-34" value="Product displayed in grocery list" style="rounded=1;whiteSpace=wrap;html=1;fontSize=12;glass=0;strokeWidth=1;shadow=0;" vertex="1" parent="WIyWlLk6GJQsqaUBKTNV-1">
          <mxGeometry x="785" y="345" width="120" height="40" as="geometry" />
        </mxCell>
        <mxCell id="ye9LeTMhtZtwqH-GRNJo-35" value="&quot;Add&quot; button is replaced with &quot;Remove&quot; button on product in grocery list and on same product in store list" style="rounded=1;whiteSpace=wrap;html=1;fontSize=12;glass=0;strokeWidth=1;shadow=0;" vertex="1" parent="WIyWlLk6GJQsqaUBKTNV-1">
          <mxGeometry x="772.5" y="430" width="145" height="120" as="geometry" />
        </mxCell>
        <mxCell id="ye9LeTMhtZtwqH-GRNJo-42" style="edgeStyle=orthogonalEdgeStyle;rounded=0;orthogonalLoop=1;jettySize=auto;html=1;entryX=0.5;entryY=0;entryDx=0;entryDy=0;" edge="1" parent="WIyWlLk6GJQsqaUBKTNV-1" source="ye9LeTMhtZtwqH-GRNJo-36" target="ye9LeTMhtZtwqH-GRNJo-39">
          <mxGeometry relative="1" as="geometry" />
        </mxCell>
        <mxCell id="ye9LeTMhtZtwqH-GRNJo-36" value="Product displayed in favorites list" style="rounded=1;whiteSpace=wrap;html=1;fontSize=12;glass=0;strokeWidth=1;shadow=0;" vertex="1" parent="WIyWlLk6GJQsqaUBKTNV-1">
          <mxGeometry x="555" y="345" width="120" height="40" as="geometry" />
        </mxCell>
        <mxCell id="ye9LeTMhtZtwqH-GRNJo-39" value="&quot;Heart&quot; button is filled on product in favorites list and on same product in store list" style="rounded=1;whiteSpace=wrap;html=1;fontSize=12;glass=0;strokeWidth=1;shadow=0;" vertex="1" parent="WIyWlLk6GJQsqaUBKTNV-1">
          <mxGeometry x="542.5" y="430" width="145" height="120" as="geometry" />
        </mxCell>
      </root>
    </mxGraphModel>
  </diagram>
  <diagram id="AN7lqRjJUFR5Ar2wJDYw" name="Favorites list">
    <mxGraphModel dx="1426" dy="826" grid="1" gridSize="10" guides="1" tooltips="1" connect="1" arrows="1" fold="1" page="1" pageScale="1" pageWidth="980" pageHeight="690" math="0" shadow="0">
      <root>
        <mxCell id="CH1nXMqC8syel9i8pLP6-0" />
        <mxCell id="CH1nXMqC8syel9i8pLP6-1" parent="CH1nXMqC8syel9i8pLP6-0" />
        <mxCell id="ycqRUA5-y94OmmrAhamC-23" style="edgeStyle=orthogonalEdgeStyle;rounded=0;orthogonalLoop=1;jettySize=auto;html=1;entryX=0.5;entryY=0;entryDx=0;entryDy=0;" edge="1" parent="CH1nXMqC8syel9i8pLP6-1" source="CH1nXMqC8syel9i8pLP6-2" target="ycqRUA5-y94OmmrAhamC-22">
          <mxGeometry relative="1" as="geometry" />
        </mxCell>
        <mxCell id="CH1nXMqC8syel9i8pLP6-2" value="User clicks &lt;br&gt;favorite button" style="rhombus;whiteSpace=wrap;html=1;" vertex="1" parent="CH1nXMqC8syel9i8pLP6-1">
          <mxGeometry x="720" y="80" width="150" height="70" as="geometry" />
        </mxCell>
        <mxCell id="ycqRUA5-y94OmmrAhamC-14" style="edgeStyle=orthogonalEdgeStyle;rounded=0;orthogonalLoop=1;jettySize=auto;html=1;entryX=0.5;entryY=0;entryDx=0;entryDy=0;" edge="1" parent="CH1nXMqC8syel9i8pLP6-1" source="iYyKJBhAudIqUvUGAlF6-0" target="ycqRUA5-y94OmmrAhamC-3">
          <mxGeometry relative="1" as="geometry" />
        </mxCell>
        <mxCell id="iYyKJBhAudIqUvUGAlF6-0" value="Load Page" style="rounded=1;whiteSpace=wrap;html=1;fontSize=12;glass=0;strokeWidth=1;shadow=0;" vertex="1" parent="CH1nXMqC8syel9i8pLP6-1">
          <mxGeometry x="120" y="80" width="120" height="40" as="geometry" />
        </mxCell>
        <mxCell id="ycqRUA5-y94OmmrAhamC-2" value="Display empty list" style="rounded=1;whiteSpace=wrap;html=1;fontSize=12;glass=0;strokeWidth=1;shadow=0;" vertex="1" parent="CH1nXMqC8syel9i8pLP6-1">
          <mxGeometry x="120" y="400" width="120" height="40" as="geometry" />
        </mxCell>
        <mxCell id="ycqRUA5-y94OmmrAhamC-5" style="edgeStyle=orthogonalEdgeStyle;rounded=0;orthogonalLoop=1;jettySize=auto;html=1;entryX=0.5;entryY=0;entryDx=0;entryDy=0;" edge="1" parent="CH1nXMqC8syel9i8pLP6-1" source="ycqRUA5-y94OmmrAhamC-3" target="ycqRUA5-y94OmmrAhamC-2">
          <mxGeometry relative="1" as="geometry" />
        </mxCell>
        <mxCell id="ycqRUA5-y94OmmrAhamC-13" style="edgeStyle=orthogonalEdgeStyle;rounded=0;orthogonalLoop=1;jettySize=auto;html=1;entryX=0;entryY=0.5;entryDx=0;entryDy=0;" edge="1" parent="CH1nXMqC8syel9i8pLP6-1" source="ycqRUA5-y94OmmrAhamC-3" target="ycqRUA5-y94OmmrAhamC-9">
          <mxGeometry relative="1" as="geometry">
            <Array as="points">
              <mxPoint x="310" y="240" />
            </Array>
          </mxGeometry>
        </mxCell>
        <mxCell id="ycqRUA5-y94OmmrAhamC-3" value="&lt;div&gt;&lt;span&gt;Check if user&lt;/span&gt;&lt;/div&gt;&lt;div&gt;&lt;span&gt;has items in&lt;/span&gt;&lt;/div&gt;&lt;div&gt;&lt;span&gt;favorites list&lt;/span&gt;&lt;/div&gt;&lt;div&gt;object&lt;/div&gt;" style="rhombus;whiteSpace=wrap;html=1;align=center;" vertex="1" parent="CH1nXMqC8syel9i8pLP6-1">
          <mxGeometry x="120" y="180" width="120" height="120" as="geometry" />
        </mxCell>
        <mxCell id="ycqRUA5-y94OmmrAhamC-6" value="False" style="text;html=1;strokeColor=none;fillColor=none;align=center;verticalAlign=middle;whiteSpace=wrap;rounded=0;" vertex="1" parent="CH1nXMqC8syel9i8pLP6-1">
          <mxGeometry x="120" y="340" width="60" height="30" as="geometry" />
        </mxCell>
        <mxCell id="ycqRUA5-y94OmmrAhamC-7" value="True" style="text;html=1;strokeColor=none;fillColor=none;align=center;verticalAlign=middle;whiteSpace=wrap;rounded=0;" vertex="1" parent="CH1nXMqC8syel9i8pLP6-1">
          <mxGeometry x="240" y="250" width="60" height="30" as="geometry" />
        </mxCell>
        <mxCell id="ycqRUA5-y94OmmrAhamC-8" value="Fill heart on comparison list item and stays on list" style="rounded=1;whiteSpace=wrap;html=1;fontSize=12;glass=0;strokeWidth=1;shadow=0;" vertex="1" parent="CH1nXMqC8syel9i8pLP6-1">
          <mxGeometry x="980" y="370" width="120" height="60" as="geometry" />
        </mxCell>
        <mxCell id="ycqRUA5-y94OmmrAhamC-16" style="edgeStyle=orthogonalEdgeStyle;rounded=0;orthogonalLoop=1;jettySize=auto;html=1;entryX=0.5;entryY=1;entryDx=0;entryDy=0;" edge="1" parent="CH1nXMqC8syel9i8pLP6-1" source="ycqRUA5-y94OmmrAhamC-9" target="ycqRUA5-y94OmmrAhamC-11">
          <mxGeometry relative="1" as="geometry" />
        </mxCell>
        <mxCell id="ycqRUA5-y94OmmrAhamC-9" value="Display list" style="rounded=1;whiteSpace=wrap;html=1;fontSize=12;glass=0;strokeWidth=1;shadow=0;" vertex="1" parent="CH1nXMqC8syel9i8pLP6-1">
          <mxGeometry x="310" y="220" width="120" height="40" as="geometry" />
        </mxCell>
        <mxCell id="ycqRUA5-y94OmmrAhamC-10" value="Item added to favorites list array with filled heart" style="rounded=1;whiteSpace=wrap;html=1;fontSize=12;glass=0;strokeWidth=1;shadow=0;" vertex="1" parent="CH1nXMqC8syel9i8pLP6-1">
          <mxGeometry x="850" y="370" width="120" height="60" as="geometry" />
        </mxCell>
        <mxCell id="ycqRUA5-y94OmmrAhamC-11" value="Fill hearts of all items on comparison lists that are on favorites list" style="rounded=1;whiteSpace=wrap;html=1;fontSize=12;glass=0;strokeWidth=1;shadow=0;" vertex="1" parent="CH1nXMqC8syel9i8pLP6-1">
          <mxGeometry x="310" y="80" width="120" height="80" as="geometry" />
        </mxCell>
        <mxCell id="ycqRUA5-y94OmmrAhamC-24" style="edgeStyle=orthogonalEdgeStyle;rounded=0;orthogonalLoop=1;jettySize=auto;html=1;exitX=1;exitY=0.5;exitDx=0;exitDy=0;entryX=0.5;entryY=0;entryDx=0;entryDy=0;" edge="1" parent="CH1nXMqC8syel9i8pLP6-1" source="ycqRUA5-y94OmmrAhamC-22" target="ycqRUA5-y94OmmrAhamC-8">
          <mxGeometry relative="1" as="geometry">
            <Array as="points">
              <mxPoint x="1040" y="233" />
            </Array>
          </mxGeometry>
        </mxCell>
        <mxCell id="ycqRUA5-y94OmmrAhamC-27" style="edgeStyle=orthogonalEdgeStyle;rounded=0;orthogonalLoop=1;jettySize=auto;html=1;exitX=1;exitY=0.5;exitDx=0;exitDy=0;" edge="1" parent="CH1nXMqC8syel9i8pLP6-1" source="ycqRUA5-y94OmmrAhamC-22" target="ycqRUA5-y94OmmrAhamC-10">
          <mxGeometry relative="1" as="geometry" />
        </mxCell>
        <mxCell id="ycqRUA5-y94OmmrAhamC-31" style="edgeStyle=orthogonalEdgeStyle;rounded=0;orthogonalLoop=1;jettySize=auto;html=1;entryX=0.5;entryY=0;entryDx=0;entryDy=0;" edge="1" parent="CH1nXMqC8syel9i8pLP6-1" source="ycqRUA5-y94OmmrAhamC-22" target="ycqRUA5-y94OmmrAhamC-28">
          <mxGeometry relative="1" as="geometry" />
        </mxCell>
        <mxCell id="ycqRUA5-y94OmmrAhamC-32" style="edgeStyle=orthogonalEdgeStyle;rounded=0;orthogonalLoop=1;jettySize=auto;html=1;entryX=0.5;entryY=0;entryDx=0;entryDy=0;" edge="1" parent="CH1nXMqC8syel9i8pLP6-1" source="ycqRUA5-y94OmmrAhamC-22" target="ycqRUA5-y94OmmrAhamC-29">
          <mxGeometry relative="1" as="geometry">
            <Array as="points">
              <mxPoint x="710" y="233" />
            </Array>
          </mxGeometry>
        </mxCell>
        <mxCell id="ycqRUA5-y94OmmrAhamC-22" value="Item on &lt;br&gt;favorites list?" style="rhombus;whiteSpace=wrap;html=1;" vertex="1" parent="CH1nXMqC8syel9i8pLP6-1">
          <mxGeometry x="740" y="180" width="110" height="105" as="geometry" />
        </mxCell>
        <mxCell id="ycqRUA5-y94OmmrAhamC-25" value="False" style="text;html=1;strokeColor=none;fillColor=none;align=center;verticalAlign=middle;whiteSpace=wrap;rounded=0;" vertex="1" parent="CH1nXMqC8syel9i8pLP6-1">
          <mxGeometry x="880" y="195" width="60" height="30" as="geometry" />
        </mxCell>
        <mxCell id="ycqRUA5-y94OmmrAhamC-28" value="&amp;nbsp; Remove item from favorites list object" style="rounded=1;whiteSpace=wrap;html=1;fontSize=12;glass=0;strokeWidth=1;shadow=0;" vertex="1" parent="CH1nXMqC8syel9i8pLP6-1">
          <mxGeometry x="510" y="370" width="120" height="60" as="geometry" />
        </mxCell>
        <mxCell id="ycqRUA5-y94OmmrAhamC-29" value="Unfill heart on comparison list item and stays on list" style="rounded=1;whiteSpace=wrap;html=1;fontSize=12;glass=0;strokeWidth=1;shadow=0;" vertex="1" parent="CH1nXMqC8syel9i8pLP6-1">
          <mxGeometry x="650" y="370" width="120" height="60" as="geometry" />
        </mxCell>
        <mxCell id="ycqRUA5-y94OmmrAhamC-30" value="True" style="text;html=1;strokeColor=none;fillColor=none;align=center;verticalAlign=middle;whiteSpace=wrap;rounded=0;" vertex="1" parent="CH1nXMqC8syel9i8pLP6-1">
          <mxGeometry x="630" y="190" width="60" height="30" as="geometry" />
        </mxCell>
        <mxCell id="ycqRUA5-y94OmmrAhamC-33" value="Favorite button on comparison list item or favorites list item" style="text;html=1;strokeColor=none;fillColor=none;align=center;verticalAlign=middle;whiteSpace=wrap;rounded=0;" vertex="1" parent="CH1nXMqC8syel9i8pLP6-1">
          <mxGeometry x="610" y="40" width="370" height="30" as="geometry" />
        </mxCell>
      </root>
    </mxGraphModel>
  </diagram>
  <diagram id="hAy2BgDGpwEEH9yEDncJ" name="Grocery List">
    <mxGraphModel dx="1426" dy="826" grid="1" gridSize="10" guides="1" tooltips="1" connect="1" arrows="1" fold="1" page="1" pageScale="1" pageWidth="980" pageHeight="690" math="0" shadow="0">
      <root>
        <mxCell id="T0ptuTBbsSA07uKCuQvu-0" />
        <mxCell id="T0ptuTBbsSA07uKCuQvu-1" parent="T0ptuTBbsSA07uKCuQvu-0" />
        <mxCell id="j5xwqf29aU2_j398qhg0-0" style="edgeStyle=orthogonalEdgeStyle;rounded=0;orthogonalLoop=1;jettySize=auto;html=1;entryX=0.5;entryY=0;entryDx=0;entryDy=0;" edge="1" parent="T0ptuTBbsSA07uKCuQvu-1" source="j5xwqf29aU2_j398qhg0-1" target="j5xwqf29aU2_j398qhg0-19">
          <mxGeometry relative="1" as="geometry" />
        </mxCell>
        <mxCell id="j5xwqf29aU2_j398qhg0-1" value="User clicks &lt;br&gt;add/remove button" style="rhombus;whiteSpace=wrap;html=1;" vertex="1" parent="T0ptuTBbsSA07uKCuQvu-1">
          <mxGeometry x="640" y="70" width="150" height="70" as="geometry" />
        </mxCell>
        <mxCell id="j5xwqf29aU2_j398qhg0-2" style="edgeStyle=orthogonalEdgeStyle;rounded=0;orthogonalLoop=1;jettySize=auto;html=1;entryX=0.5;entryY=0;entryDx=0;entryDy=0;" edge="1" parent="T0ptuTBbsSA07uKCuQvu-1" source="j5xwqf29aU2_j398qhg0-3" target="j5xwqf29aU2_j398qhg0-7">
          <mxGeometry relative="1" as="geometry" />
        </mxCell>
        <mxCell id="j5xwqf29aU2_j398qhg0-3" value="Load Page" style="rounded=1;whiteSpace=wrap;html=1;fontSize=12;glass=0;strokeWidth=1;shadow=0;" vertex="1" parent="T0ptuTBbsSA07uKCuQvu-1">
          <mxGeometry x="40" y="70" width="120" height="40" as="geometry" />
        </mxCell>
        <mxCell id="j5xwqf29aU2_j398qhg0-4" value="Display empty list" style="rounded=1;whiteSpace=wrap;html=1;fontSize=12;glass=0;strokeWidth=1;shadow=0;" vertex="1" parent="T0ptuTBbsSA07uKCuQvu-1">
          <mxGeometry x="40" y="390" width="120" height="40" as="geometry" />
        </mxCell>
        <mxCell id="j5xwqf29aU2_j398qhg0-5" style="edgeStyle=orthogonalEdgeStyle;rounded=0;orthogonalLoop=1;jettySize=auto;html=1;entryX=0.5;entryY=0;entryDx=0;entryDy=0;" edge="1" parent="T0ptuTBbsSA07uKCuQvu-1" source="j5xwqf29aU2_j398qhg0-7" target="j5xwqf29aU2_j398qhg0-4">
          <mxGeometry relative="1" as="geometry" />
        </mxCell>
        <mxCell id="j5xwqf29aU2_j398qhg0-6" style="edgeStyle=orthogonalEdgeStyle;rounded=0;orthogonalLoop=1;jettySize=auto;html=1;entryX=0;entryY=0.5;entryDx=0;entryDy=0;" edge="1" parent="T0ptuTBbsSA07uKCuQvu-1" source="j5xwqf29aU2_j398qhg0-7" target="j5xwqf29aU2_j398qhg0-12">
          <mxGeometry relative="1" as="geometry">
            <Array as="points">
              <mxPoint x="230" y="230" />
            </Array>
          </mxGeometry>
        </mxCell>
        <mxCell id="j5xwqf29aU2_j398qhg0-7" value="&lt;div&gt;&lt;span&gt;Check if items in grocery list object&lt;/span&gt;&lt;/div&gt;" style="rhombus;whiteSpace=wrap;html=1;align=center;" vertex="1" parent="T0ptuTBbsSA07uKCuQvu-1">
          <mxGeometry x="40" y="170" width="120" height="120" as="geometry" />
        </mxCell>
        <mxCell id="j5xwqf29aU2_j398qhg0-8" value="False" style="text;html=1;strokeColor=none;fillColor=none;align=center;verticalAlign=middle;whiteSpace=wrap;rounded=0;" vertex="1" parent="T0ptuTBbsSA07uKCuQvu-1">
          <mxGeometry x="40" y="330" width="60" height="30" as="geometry" />
        </mxCell>
        <mxCell id="j5xwqf29aU2_j398qhg0-9" value="True" style="text;html=1;strokeColor=none;fillColor=none;align=center;verticalAlign=middle;whiteSpace=wrap;rounded=0;" vertex="1" parent="T0ptuTBbsSA07uKCuQvu-1">
          <mxGeometry x="160" y="240" width="60" height="30" as="geometry" />
        </mxCell>
        <mxCell id="j5xwqf29aU2_j398qhg0-10" value="Toggle add to remove on comparison list item and stays on list" style="rounded=1;whiteSpace=wrap;html=1;fontSize=12;glass=0;strokeWidth=1;shadow=0;" vertex="1" parent="T0ptuTBbsSA07uKCuQvu-1">
          <mxGeometry x="900" y="360" width="120" height="60" as="geometry" />
        </mxCell>
        <mxCell id="j5xwqf29aU2_j398qhg0-11" style="edgeStyle=orthogonalEdgeStyle;rounded=0;orthogonalLoop=1;jettySize=auto;html=1;entryX=0.5;entryY=1;entryDx=0;entryDy=0;" edge="1" parent="T0ptuTBbsSA07uKCuQvu-1" source="j5xwqf29aU2_j398qhg0-12" target="j5xwqf29aU2_j398qhg0-14">
          <mxGeometry relative="1" as="geometry" />
        </mxCell>
        <mxCell id="j5xwqf29aU2_j398qhg0-12" value="Display list" style="rounded=1;whiteSpace=wrap;html=1;fontSize=12;glass=0;strokeWidth=1;shadow=0;" vertex="1" parent="T0ptuTBbsSA07uKCuQvu-1">
          <mxGeometry x="230" y="210" width="120" height="40" as="geometry" />
        </mxCell>
        <mxCell id="j5xwqf29aU2_j398qhg0-13" value="Item added to grocery list array and toggle add to remove" style="rounded=1;whiteSpace=wrap;html=1;fontSize=12;glass=0;strokeWidth=1;shadow=0;" vertex="1" parent="T0ptuTBbsSA07uKCuQvu-1">
          <mxGeometry x="770" y="360" width="120" height="60" as="geometry" />
        </mxCell>
        <mxCell id="j5xwqf29aU2_j398qhg0-14" value="Toggle add/remove&amp;nbsp; on all items on comparison lists that are on grocery list" style="rounded=1;whiteSpace=wrap;html=1;fontSize=12;glass=0;strokeWidth=1;shadow=0;" vertex="1" parent="T0ptuTBbsSA07uKCuQvu-1">
          <mxGeometry x="230" y="70" width="120" height="80" as="geometry" />
        </mxCell>
        <mxCell id="j5xwqf29aU2_j398qhg0-15" style="edgeStyle=orthogonalEdgeStyle;rounded=0;orthogonalLoop=1;jettySize=auto;html=1;exitX=1;exitY=0.5;exitDx=0;exitDy=0;entryX=0.5;entryY=0;entryDx=0;entryDy=0;" edge="1" parent="T0ptuTBbsSA07uKCuQvu-1" source="j5xwqf29aU2_j398qhg0-19" target="j5xwqf29aU2_j398qhg0-10">
          <mxGeometry relative="1" as="geometry">
            <Array as="points">
              <mxPoint x="960" y="223" />
            </Array>
          </mxGeometry>
        </mxCell>
        <mxCell id="j5xwqf29aU2_j398qhg0-16" style="edgeStyle=orthogonalEdgeStyle;rounded=0;orthogonalLoop=1;jettySize=auto;html=1;exitX=1;exitY=0.5;exitDx=0;exitDy=0;" edge="1" parent="T0ptuTBbsSA07uKCuQvu-1" source="j5xwqf29aU2_j398qhg0-19" target="j5xwqf29aU2_j398qhg0-13">
          <mxGeometry relative="1" as="geometry" />
        </mxCell>
        <mxCell id="j5xwqf29aU2_j398qhg0-17" style="edgeStyle=orthogonalEdgeStyle;rounded=0;orthogonalLoop=1;jettySize=auto;html=1;entryX=0.5;entryY=0;entryDx=0;entryDy=0;" edge="1" parent="T0ptuTBbsSA07uKCuQvu-1" source="j5xwqf29aU2_j398qhg0-19" target="j5xwqf29aU2_j398qhg0-21">
          <mxGeometry relative="1" as="geometry" />
        </mxCell>
        <mxCell id="j5xwqf29aU2_j398qhg0-18" style="edgeStyle=orthogonalEdgeStyle;rounded=0;orthogonalLoop=1;jettySize=auto;html=1;entryX=0.5;entryY=0;entryDx=0;entryDy=0;" edge="1" parent="T0ptuTBbsSA07uKCuQvu-1" source="j5xwqf29aU2_j398qhg0-19" target="j5xwqf29aU2_j398qhg0-22">
          <mxGeometry relative="1" as="geometry">
            <Array as="points">
              <mxPoint x="630" y="223" />
            </Array>
          </mxGeometry>
        </mxCell>
        <mxCell id="j5xwqf29aU2_j398qhg0-19" value="Item on &lt;br&gt;grocery list?" style="rhombus;whiteSpace=wrap;html=1;" vertex="1" parent="T0ptuTBbsSA07uKCuQvu-1">
          <mxGeometry x="660" y="170" width="110" height="105" as="geometry" />
        </mxCell>
        <mxCell id="j5xwqf29aU2_j398qhg0-20" value="False" style="text;html=1;strokeColor=none;fillColor=none;align=center;verticalAlign=middle;whiteSpace=wrap;rounded=0;" vertex="1" parent="T0ptuTBbsSA07uKCuQvu-1">
          <mxGeometry x="800" y="185" width="60" height="30" as="geometry" />
        </mxCell>
        <mxCell id="j5xwqf29aU2_j398qhg0-21" value="&amp;nbsp; Remove item from grocery list object" style="rounded=1;whiteSpace=wrap;html=1;fontSize=12;glass=0;strokeWidth=1;shadow=0;" vertex="1" parent="T0ptuTBbsSA07uKCuQvu-1">
          <mxGeometry x="430" y="360" width="120" height="60" as="geometry" />
        </mxCell>
        <mxCell id="j5xwqf29aU2_j398qhg0-22" value="Toggle remove to add on comparison list item and stays on list" style="rounded=1;whiteSpace=wrap;html=1;fontSize=12;glass=0;strokeWidth=1;shadow=0;" vertex="1" parent="T0ptuTBbsSA07uKCuQvu-1">
          <mxGeometry x="570" y="360" width="120" height="60" as="geometry" />
        </mxCell>
        <mxCell id="j5xwqf29aU2_j398qhg0-23" value="True" style="text;html=1;strokeColor=none;fillColor=none;align=center;verticalAlign=middle;whiteSpace=wrap;rounded=0;" vertex="1" parent="T0ptuTBbsSA07uKCuQvu-1">
          <mxGeometry x="550" y="180" width="60" height="30" as="geometry" />
        </mxCell>
        <mxCell id="j5xwqf29aU2_j398qhg0-24" value="Add/remove button on comparison list item or grocery list item" style="text;html=1;strokeColor=none;fillColor=none;align=center;verticalAlign=middle;whiteSpace=wrap;rounded=0;" vertex="1" parent="T0ptuTBbsSA07uKCuQvu-1">
          <mxGeometry x="530" y="30" width="370" height="30" as="geometry" />
        </mxCell>
        <mxCell id="zfRjgIyNT9m3I020Rult-2" style="edgeStyle=orthogonalEdgeStyle;rounded=0;orthogonalLoop=1;jettySize=auto;html=1;entryX=0;entryY=0.5;entryDx=0;entryDy=0;" edge="1" parent="T0ptuTBbsSA07uKCuQvu-1" source="zfRjgIyNT9m3I020Rult-0" target="zfRjgIyNT9m3I020Rult-1">
          <mxGeometry relative="1" as="geometry" />
        </mxCell>
        <mxCell id="zfRjgIyNT9m3I020Rult-0" value="User clicks &lt;br&gt;save list button" style="rhombus;whiteSpace=wrap;html=1;" vertex="1" parent="T0ptuTBbsSA07uKCuQvu-1">
          <mxGeometry x="140" y="520" width="150" height="70" as="geometry" />
        </mxCell>
        <mxCell id="zfRjgIyNT9m3I020Rult-1" value="List object is updated in db" style="rounded=1;whiteSpace=wrap;html=1;fontSize=12;glass=0;strokeWidth=1;shadow=0;" vertex="1" parent="T0ptuTBbsSA07uKCuQvu-1">
          <mxGeometry x="350" y="535" width="120" height="40" as="geometry" />
        </mxCell>
      </root>
    </mxGraphModel>
  </diagram>
  <diagram id="n3rtcUL9utiofk1WoGl5" name="Compare groceries">
    <mxGraphModel dx="1426" dy="826" grid="1" gridSize="10" guides="1" tooltips="1" connect="1" arrows="1" fold="1" page="1" pageScale="1" pageWidth="980" pageHeight="690" math="0" shadow="0">
      <root>
        <mxCell id="kgiIkx2p7KQdM61MY78I-0" />
        <mxCell id="kgiIkx2p7KQdM61MY78I-1" parent="kgiIkx2p7KQdM61MY78I-0" />
        <mxCell id="gKSusM-zNOTIbq969v2C-1" style="edgeStyle=orthogonalEdgeStyle;rounded=0;orthogonalLoop=1;jettySize=auto;html=1;" edge="1" parent="kgiIkx2p7KQdM61MY78I-1" source="kgiIkx2p7KQdM61MY78I-2" target="gKSusM-zNOTIbq969v2C-0">
          <mxGeometry relative="1" as="geometry" />
        </mxCell>
        <mxCell id="kgiIkx2p7KQdM61MY78I-2" value="Display products in category and store" style="rounded=1;whiteSpace=wrap;html=1;fontSize=12;glass=0;strokeWidth=1;shadow=0;" vertex="1" parent="kgiIkx2p7KQdM61MY78I-1">
          <mxGeometry x="40" y="30" width="120" height="60" as="geometry" />
        </mxCell>
        <mxCell id="gKSusM-zNOTIbq969v2C-3" style="edgeStyle=orthogonalEdgeStyle;rounded=0;orthogonalLoop=1;jettySize=auto;html=1;" edge="1" parent="kgiIkx2p7KQdM61MY78I-1" source="gKSusM-zNOTIbq969v2C-0" target="gKSusM-zNOTIbq969v2C-2">
          <mxGeometry relative="1" as="geometry">
            <Array as="points">
              <mxPoint x="175" y="100" />
            </Array>
          </mxGeometry>
        </mxCell>
        <mxCell id="gKSusM-zNOTIbq969v2C-12" style="edgeStyle=orthogonalEdgeStyle;rounded=0;orthogonalLoop=1;jettySize=auto;html=1;entryX=0.5;entryY=0;entryDx=0;entryDy=0;" edge="1" parent="kgiIkx2p7KQdM61MY78I-1" source="gKSusM-zNOTIbq969v2C-0" target="gKSusM-zNOTIbq969v2C-6">
          <mxGeometry relative="1" as="geometry" />
        </mxCell>
        <mxCell id="gKSusM-zNOTIbq969v2C-18" style="edgeStyle=orthogonalEdgeStyle;rounded=0;orthogonalLoop=1;jettySize=auto;html=1;entryX=0;entryY=0.5;entryDx=0;entryDy=0;" edge="1" parent="kgiIkx2p7KQdM61MY78I-1" source="gKSusM-zNOTIbq969v2C-0" target="gKSusM-zNOTIbq969v2C-17">
          <mxGeometry relative="1" as="geometry" />
        </mxCell>
        <mxCell id="gKSusM-zNOTIbq969v2C-22" style="edgeStyle=orthogonalEdgeStyle;rounded=0;orthogonalLoop=1;jettySize=auto;html=1;entryX=0.5;entryY=0;entryDx=0;entryDy=0;" edge="1" parent="kgiIkx2p7KQdM61MY78I-1" source="gKSusM-zNOTIbq969v2C-0" target="gKSusM-zNOTIbq969v2C-21">
          <mxGeometry relative="1" as="geometry" />
        </mxCell>
        <mxCell id="gKSusM-zNOTIbq969v2C-0" value="User clicks on product&lt;br&gt;&amp;nbsp;in store list" style="rhombus;whiteSpace=wrap;html=1;align=center;" vertex="1" parent="kgiIkx2p7KQdM61MY78I-1">
          <mxGeometry x="240" y="17.5" width="150" height="85" as="geometry" />
        </mxCell>
        <mxCell id="gKSusM-zNOTIbq969v2C-10" style="edgeStyle=orthogonalEdgeStyle;rounded=0;orthogonalLoop=1;jettySize=auto;html=1;entryX=0.5;entryY=0;entryDx=0;entryDy=0;" edge="1" parent="kgiIkx2p7KQdM61MY78I-1" source="gKSusM-zNOTIbq969v2C-2" target="gKSusM-zNOTIbq969v2C-7">
          <mxGeometry relative="1" as="geometry" />
        </mxCell>
        <mxCell id="gKSusM-zNOTIbq969v2C-26" style="edgeStyle=orthogonalEdgeStyle;rounded=0;orthogonalLoop=1;jettySize=auto;html=1;entryX=0;entryY=0.5;entryDx=0;entryDy=0;" edge="1" parent="kgiIkx2p7KQdM61MY78I-1" source="gKSusM-zNOTIbq969v2C-2" target="gKSusM-zNOTIbq969v2C-21">
          <mxGeometry relative="1" as="geometry" />
        </mxCell>
        <mxCell id="gKSusM-zNOTIbq969v2C-2" value="Product is highlighted signifying selection" style="rounded=1;whiteSpace=wrap;html=1;fontSize=12;glass=0;strokeWidth=1;shadow=0;" vertex="1" parent="kgiIkx2p7KQdM61MY78I-1">
          <mxGeometry x="115" y="160" width="120" height="60" as="geometry" />
        </mxCell>
        <mxCell id="gKSusM-zNOTIbq969v2C-4" value="Product is no longer selected" style="rounded=1;whiteSpace=wrap;html=1;fontSize=12;glass=0;strokeWidth=1;shadow=0;" vertex="1" parent="kgiIkx2p7KQdM61MY78I-1">
          <mxGeometry x="30" y="460" width="120" height="60" as="geometry" />
        </mxCell>
        <mxCell id="gKSusM-zNOTIbq969v2C-24" style="edgeStyle=orthogonalEdgeStyle;rounded=0;orthogonalLoop=1;jettySize=auto;html=1;entryX=0.5;entryY=0;entryDx=0;entryDy=0;" edge="1" parent="kgiIkx2p7KQdM61MY78I-1" source="gKSusM-zNOTIbq969v2C-5" target="gKSusM-zNOTIbq969v2C-23">
          <mxGeometry relative="1" as="geometry" />
        </mxCell>
        <mxCell id="gKSusM-zNOTIbq969v2C-25" style="edgeStyle=orthogonalEdgeStyle;rounded=0;orthogonalLoop=1;jettySize=auto;html=1;entryX=0.5;entryY=1;entryDx=0;entryDy=0;" edge="1" parent="kgiIkx2p7KQdM61MY78I-1" source="gKSusM-zNOTIbq969v2C-5" target="gKSusM-zNOTIbq969v2C-21">
          <mxGeometry relative="1" as="geometry" />
        </mxCell>
        <mxCell id="gKSusM-zNOTIbq969v2C-5" value="Sort products with the closest match from highest to lowest" style="rounded=1;whiteSpace=wrap;html=1;fontSize=12;glass=0;strokeWidth=1;shadow=0;" vertex="1" parent="kgiIkx2p7KQdM61MY78I-1">
          <mxGeometry x="490" y="270" width="120" height="90" as="geometry" />
        </mxCell>
        <mxCell id="gKSusM-zNOTIbq969v2C-14" style="edgeStyle=orthogonalEdgeStyle;rounded=0;orthogonalLoop=1;jettySize=auto;html=1;entryX=0.5;entryY=0;entryDx=0;entryDy=0;" edge="1" parent="kgiIkx2p7KQdM61MY78I-1" source="gKSusM-zNOTIbq969v2C-6" target="gKSusM-zNOTIbq969v2C-5">
          <mxGeometry relative="1" as="geometry" />
        </mxCell>
        <mxCell id="gKSusM-zNOTIbq969v2C-6" value="Find other products with similar titles using similar function" style="rounded=1;whiteSpace=wrap;html=1;fontSize=12;glass=0;strokeWidth=1;shadow=0;" vertex="1" parent="kgiIkx2p7KQdM61MY78I-1">
          <mxGeometry x="490" y="140" width="120" height="80" as="geometry" />
        </mxCell>
        <mxCell id="gKSusM-zNOTIbq969v2C-11" style="edgeStyle=orthogonalEdgeStyle;rounded=0;orthogonalLoop=1;jettySize=auto;html=1;entryX=0.5;entryY=0;entryDx=0;entryDy=0;" edge="1" parent="kgiIkx2p7KQdM61MY78I-1" source="gKSusM-zNOTIbq969v2C-7" target="gKSusM-zNOTIbq969v2C-4">
          <mxGeometry relative="1" as="geometry" />
        </mxCell>
        <mxCell id="gKSusM-zNOTIbq969v2C-28" style="edgeStyle=orthogonalEdgeStyle;rounded=0;orthogonalLoop=1;jettySize=auto;html=1;entryX=0.5;entryY=0;entryDx=0;entryDy=0;" edge="1" parent="kgiIkx2p7KQdM61MY78I-1" source="gKSusM-zNOTIbq969v2C-7" target="gKSusM-zNOTIbq969v2C-27">
          <mxGeometry relative="1" as="geometry" />
        </mxCell>
        <mxCell id="gKSusM-zNOTIbq969v2C-7" value="User re-clicks&lt;br&gt;same product" style="rhombus;whiteSpace=wrap;html=1;align=center;" vertex="1" parent="kgiIkx2p7KQdM61MY78I-1">
          <mxGeometry x="100" y="303" width="150" height="85" as="geometry" />
        </mxCell>
        <mxCell id="gKSusM-zNOTIbq969v2C-8" value="User clicks on product&lt;br&gt;&amp;nbsp;in store list" style="rhombus;whiteSpace=wrap;html=1;align=center;" vertex="1" parent="kgiIkx2p7KQdM61MY78I-1">
          <mxGeometry x="185" y="550" width="150" height="85" as="geometry" />
        </mxCell>
        <mxCell id="gKSusM-zNOTIbq969v2C-9" value="User clicks on product&lt;br&gt;&amp;nbsp;in store list" style="rhombus;whiteSpace=wrap;html=1;align=center;" vertex="1" parent="kgiIkx2p7KQdM61MY78I-1">
          <mxGeometry x="15" y="570" width="150" height="85" as="geometry" />
        </mxCell>
        <mxCell id="gKSusM-zNOTIbq969v2C-13" value="Display products in order of most likely match" style="rounded=1;whiteSpace=wrap;html=1;fontSize=12;glass=0;strokeWidth=1;shadow=0;" vertex="1" parent="kgiIkx2p7KQdM61MY78I-1">
          <mxGeometry x="780" y="170" width="120" height="60" as="geometry" />
        </mxCell>
        <mxCell id="gKSusM-zNOTIbq969v2C-20" style="edgeStyle=orthogonalEdgeStyle;rounded=0;orthogonalLoop=1;jettySize=auto;html=1;entryX=0.5;entryY=0;entryDx=0;entryDy=0;" edge="1" parent="kgiIkx2p7KQdM61MY78I-1" source="gKSusM-zNOTIbq969v2C-17" target="gKSusM-zNOTIbq969v2C-13">
          <mxGeometry relative="1" as="geometry" />
        </mxCell>
        <mxCell id="gKSusM-zNOTIbq969v2C-17" value="Filter products in other stores with similar titles" style="rounded=1;whiteSpace=wrap;html=1;fontSize=12;glass=0;strokeWidth=1;shadow=0;" vertex="1" parent="kgiIkx2p7KQdM61MY78I-1">
          <mxGeometry x="780" y="30" width="120" height="60" as="geometry" />
        </mxCell>
        <mxCell id="gKSusM-zNOTIbq969v2C-21" value="Product is moved to the top of the list in the store" style="rounded=1;whiteSpace=wrap;html=1;fontSize=12;glass=0;strokeWidth=1;shadow=0;" vertex="1" parent="kgiIkx2p7KQdM61MY78I-1">
          <mxGeometry x="310" y="160" width="120" height="60" as="geometry" />
        </mxCell>
        <mxCell id="gKSusM-zNOTIbq969v2C-23" value="Display products in store lists in descending order" style="rounded=1;whiteSpace=wrap;html=1;fontSize=12;glass=0;strokeWidth=1;shadow=0;" vertex="1" parent="kgiIkx2p7KQdM61MY78I-1">
          <mxGeometry x="490" y="405" width="120" height="90" as="geometry" />
        </mxCell>
        <mxCell id="gKSusM-zNOTIbq969v2C-27" value="Store list order is reverted to original order" style="rounded=1;whiteSpace=wrap;html=1;fontSize=12;glass=0;strokeWidth=1;shadow=0;" vertex="1" parent="kgiIkx2p7KQdM61MY78I-1">
          <mxGeometry x="200" y="460" width="120" height="60" as="geometry" />
        </mxCell>
      </root>
    </mxGraphModel>
  </diagram>
  <diagram id="PdlFtr_QWR4QwXnpe5bL" name="DB setup">
    <mxGraphModel dx="946" dy="646" grid="1" gridSize="10" guides="1" tooltips="1" connect="1" arrows="1" fold="1" page="1" pageScale="1" pageWidth="980" pageHeight="690" math="0" shadow="0">
      <root>
        <mxCell id="gXQntKjG9dKZ7W0SXcRk-0" />
        <mxCell id="gXQntKjG9dKZ7W0SXcRk-1" parent="gXQntKjG9dKZ7W0SXcRk-0" />
        <mxCell id="3aViyYniEX1iSWWhYljI-11" style="edgeStyle=orthogonalEdgeStyle;rounded=0;orthogonalLoop=1;jettySize=auto;html=1;entryX=0.5;entryY=0;entryDx=0;entryDy=0;" edge="1" parent="gXQntKjG9dKZ7W0SXcRk-1" source="3aViyYniEX1iSWWhYljI-0" target="3aViyYniEX1iSWWhYljI-4">
          <mxGeometry relative="1" as="geometry">
            <Array as="points">
              <mxPoint x="125" y="120" />
            </Array>
          </mxGeometry>
        </mxCell>
        <mxCell id="3aViyYniEX1iSWWhYljI-12" style="edgeStyle=orthogonalEdgeStyle;rounded=0;orthogonalLoop=1;jettySize=auto;html=1;entryX=0.5;entryY=0;entryDx=0;entryDy=0;" edge="1" parent="gXQntKjG9dKZ7W0SXcRk-1" source="3aViyYniEX1iSWWhYljI-0" target="3aViyYniEX1iSWWhYljI-3">
          <mxGeometry relative="1" as="geometry">
            <Array as="points">
              <mxPoint x="340" y="120" />
            </Array>
          </mxGeometry>
        </mxCell>
        <mxCell id="3aViyYniEX1iSWWhYljI-13" style="edgeStyle=orthogonalEdgeStyle;rounded=0;orthogonalLoop=1;jettySize=auto;html=1;entryX=0.5;entryY=0;entryDx=0;entryDy=0;" edge="1" parent="gXQntKjG9dKZ7W0SXcRk-1" source="3aViyYniEX1iSWWhYljI-0" target="3aViyYniEX1iSWWhYljI-2">
          <mxGeometry relative="1" as="geometry">
            <Array as="points">
              <mxPoint x="490" y="120" />
            </Array>
          </mxGeometry>
        </mxCell>
        <mxCell id="3aViyYniEX1iSWWhYljI-0" value="Users Collection" style="rounded=1;whiteSpace=wrap;html=1;fontSize=12;glass=0;strokeWidth=1;shadow=0;" vertex="1" parent="gXQntKjG9dKZ7W0SXcRk-1">
          <mxGeometry x="160" y="100" width="120" height="40" as="geometry" />
        </mxCell>
        <mxCell id="3aViyYniEX1iSWWhYljI-22" style="edgeStyle=orthogonalEdgeStyle;rounded=0;orthogonalLoop=1;jettySize=auto;html=1;entryX=0.5;entryY=0;entryDx=0;entryDy=0;" edge="1" parent="gXQntKjG9dKZ7W0SXcRk-1" source="3aViyYniEX1iSWWhYljI-2" target="3aViyYniEX1iSWWhYljI-20">
          <mxGeometry relative="1" as="geometry" />
        </mxCell>
        <mxCell id="3aViyYniEX1iSWWhYljI-2" value="Favorites List" style="rounded=1;whiteSpace=wrap;html=1;fontSize=12;glass=0;strokeWidth=1;shadow=0;" vertex="1" parent="gXQntKjG9dKZ7W0SXcRk-1">
          <mxGeometry x="430" y="210" width="120" height="40" as="geometry" />
        </mxCell>
        <mxCell id="3aViyYniEX1iSWWhYljI-21" style="edgeStyle=orthogonalEdgeStyle;rounded=0;orthogonalLoop=1;jettySize=auto;html=1;entryX=0.5;entryY=0;entryDx=0;entryDy=0;" edge="1" parent="gXQntKjG9dKZ7W0SXcRk-1" source="3aViyYniEX1iSWWhYljI-3" target="3aViyYniEX1iSWWhYljI-16">
          <mxGeometry relative="1" as="geometry" />
        </mxCell>
        <mxCell id="3aViyYniEX1iSWWhYljI-3" value="Grocery List" style="rounded=1;whiteSpace=wrap;html=1;fontSize=12;glass=0;strokeWidth=1;shadow=0;" vertex="1" parent="gXQntKjG9dKZ7W0SXcRk-1">
          <mxGeometry x="280" y="210" width="120" height="40" as="geometry" />
        </mxCell>
        <mxCell id="3aViyYniEX1iSWWhYljI-4" value="&lt;blockquote style=&quot;margin: 0 0 0 40px ; border: none ; padding: 0px&quot;&gt;&lt;/blockquote&gt;&lt;span&gt;&lt;div&gt;&lt;span&gt;&amp;nbsp;- _id&lt;/span&gt;&lt;/div&gt;&lt;/span&gt;&lt;blockquote style=&quot;margin: 0 0 0 40px ; border: none ; padding: 0px&quot;&gt;&lt;/blockquote&gt;&lt;span&gt;&lt;div&gt;&lt;span&gt;&amp;nbsp;- First name&lt;/span&gt;&lt;/div&gt;&lt;/span&gt;&lt;blockquote style=&quot;margin: 0 0 0 40px ; border: none ; padding: 0px&quot;&gt;&lt;/blockquote&gt;&lt;span&gt;&lt;div&gt;&lt;span&gt;&amp;nbsp;- Email/Username&lt;/span&gt;&lt;/div&gt;&lt;/span&gt;&lt;span&gt;&lt;div&gt;&lt;span&gt;&amp;nbsp;- Password&lt;/span&gt;&lt;/div&gt;&lt;/span&gt;" style="rounded=1;whiteSpace=wrap;html=1;fontSize=12;glass=0;strokeWidth=1;shadow=0;align=left;" vertex="1" parent="gXQntKjG9dKZ7W0SXcRk-1">
          <mxGeometry x="60" y="210" width="120" height="70" as="geometry" />
        </mxCell>
        <mxCell id="3aViyYniEX1iSWWhYljI-28" style="edgeStyle=orthogonalEdgeStyle;rounded=0;orthogonalLoop=1;jettySize=auto;html=1;" edge="1" parent="gXQntKjG9dKZ7W0SXcRk-1" source="3aViyYniEX1iSWWhYljI-15">
          <mxGeometry relative="1" as="geometry">
            <mxPoint x="955" y="210" as="targetPoint" />
          </mxGeometry>
        </mxCell>
        <mxCell id="3aViyYniEX1iSWWhYljI-15" value="Products Collection" style="rounded=1;whiteSpace=wrap;html=1;fontSize=12;glass=0;strokeWidth=1;shadow=0;" vertex="1" parent="gXQntKjG9dKZ7W0SXcRk-1">
          <mxGeometry x="880" y="80" width="150" height="40" as="geometry" />
        </mxCell>
        <mxCell id="3aViyYniEX1iSWWhYljI-16" value="Array of products on grocery list" style="rounded=0;whiteSpace=wrap;html=1;" vertex="1" parent="gXQntKjG9dKZ7W0SXcRk-1">
          <mxGeometry x="280" y="290" width="120" height="40" as="geometry" />
        </mxCell>
        <mxCell id="3aViyYniEX1iSWWhYljI-18" value="Use db indices to compare products on user lists to products on store lists in order to mark them as favorited or saved on grocery list" style="text;html=1;strokeColor=none;fillColor=none;align=left;verticalAlign=middle;whiteSpace=wrap;rounded=0;" vertex="1" parent="gXQntKjG9dKZ7W0SXcRk-1">
          <mxGeometry x="270" y="30" width="250" height="70" as="geometry" />
        </mxCell>
        <mxCell id="3aViyYniEX1iSWWhYljI-20" value="Array of products on favorites list" style="rounded=0;whiteSpace=wrap;html=1;" vertex="1" parent="gXQntKjG9dKZ7W0SXcRk-1">
          <mxGeometry x="430" y="290" width="120" height="40" as="geometry" />
        </mxCell>
        <mxCell id="3aViyYniEX1iSWWhYljI-24" value="Product Category" style="rounded=1;whiteSpace=wrap;html=1;fontSize=12;glass=0;strokeWidth=1;shadow=0;" vertex="1" parent="gXQntKjG9dKZ7W0SXcRk-1">
          <mxGeometry x="880" y="210" width="150" height="40" as="geometry" />
        </mxCell>
        <mxCell id="3aViyYniEX1iSWWhYljI-31" style="edgeStyle=orthogonalEdgeStyle;rounded=0;orthogonalLoop=1;jettySize=auto;html=1;entryX=0.5;entryY=1;entryDx=0;entryDy=0;" edge="1" parent="gXQntKjG9dKZ7W0SXcRk-1" source="3aViyYniEX1iSWWhYljI-25" target="3aViyYniEX1iSWWhYljI-20">
          <mxGeometry relative="1" as="geometry" />
        </mxCell>
        <mxCell id="3aViyYniEX1iSWWhYljI-32" style="edgeStyle=orthogonalEdgeStyle;rounded=0;orthogonalLoop=1;jettySize=auto;html=1;entryX=0.5;entryY=1;entryDx=0;entryDy=0;" edge="1" parent="gXQntKjG9dKZ7W0SXcRk-1" source="3aViyYniEX1iSWWhYljI-25" target="3aViyYniEX1iSWWhYljI-16">
          <mxGeometry relative="1" as="geometry" />
        </mxCell>
        <mxCell id="3aViyYniEX1iSWWhYljI-25" value="&amp;nbsp;- _id&lt;br&gt;&amp;nbsp;- Title&lt;br&gt;&amp;nbsp;- Category&lt;br&gt;&amp;nbsp;- Price&lt;br&gt;&amp;nbsp;-&amp;nbsp;" style="rounded=1;whiteSpace=wrap;html=1;fontSize=12;glass=0;strokeWidth=1;shadow=0;align=left;" vertex="1" parent="gXQntKjG9dKZ7W0SXcRk-1">
          <mxGeometry x="880" y="325" width="150" height="115" as="geometry" />
        </mxCell>
        <mxCell id="3aViyYniEX1iSWWhYljI-26" value="Products Collection" style="rounded=1;whiteSpace=wrap;html=1;fontSize=12;glass=0;strokeWidth=1;shadow=0;" vertex="1" parent="gXQntKjG9dKZ7W0SXcRk-1">
          <mxGeometry x="1170" y="225" width="150" height="40" as="geometry" />
        </mxCell>
        <mxCell id="3aViyYniEX1iSWWhYljI-27" value="Products are most commonly accessed through a dropdown filter based on the grocery category (fruits, meats, etc)" style="text;html=1;strokeColor=none;fillColor=none;align=left;verticalAlign=middle;whiteSpace=wrap;rounded=0;" vertex="1" parent="gXQntKjG9dKZ7W0SXcRk-1">
          <mxGeometry x="670" y="120" width="240" height="90" as="geometry" />
        </mxCell>
        <mxCell id="3aViyYniEX1iSWWhYljI-29" value="Search box input value filters products based on title displayed in store lists" style="text;html=1;strokeColor=none;fillColor=none;align=left;verticalAlign=middle;whiteSpace=wrap;rounded=0;" vertex="1" parent="gXQntKjG9dKZ7W0SXcRk-1">
          <mxGeometry x="860" y="520" width="190" height="60" as="geometry" />
        </mxCell>
        <mxCell id="3aViyYniEX1iSWWhYljI-30" value="Should reference both the grocery list and favorites list in order to toggle button icons on each product element if on either list. Uses db supplied _id as lookup" style="text;html=1;strokeColor=none;fillColor=none;align=left;verticalAlign=middle;whiteSpace=wrap;rounded=0;" vertex="1" parent="gXQntKjG9dKZ7W0SXcRk-1">
          <mxGeometry x="540" y="390" width="190" height="90" as="geometry" />
        </mxCell>
        <mxCell id="3aViyYniEX1iSWWhYljI-34" value="Products will be sorted into arrays based on the store name associated with each product" style="text;html=1;strokeColor=none;fillColor=none;align=left;verticalAlign=middle;whiteSpace=wrap;rounded=0;" vertex="1" parent="gXQntKjG9dKZ7W0SXcRk-1">
          <mxGeometry x="1125" y="337.5" width="185" height="90" as="geometry" />
        </mxCell>
      </root>
    </mxGraphModel>
  </diagram>
</mxfile>
